<svg id="Warstwa_1" data-name="Warstwa 1" xmlns="http://www.w3.org/2000/svg" viewBox="0 0 229.03 20.62"><defs><style>.cls-1{fill:#333333;}</style></defs><path class="cls-1" d="M27.51,54.07l-.15,5.85H10.49v-.67h.58a3.4,3.4,0,0,0,1.77-.33,1.54,1.54,0,0,0,.63-1,21.55,21.55,0,0,0,.14-3.17V45A20.36,20.36,0,0,0,13.47,42a1.38,1.38,0,0,0-.59-1,4.67,4.67,0,0,0-2-.26h-.44v-.67H20v.67h-.88a4.92,4.92,0,0,0-1.92.24,1.26,1.26,0,0,0-.6.9A17.68,17.68,0,0,0,16.46,45v10.4a17.3,17.3,0,0,0,.12,2.69,1.23,1.23,0,0,0,.64.84,5,5,0,0,0,2.23.31H21a8.33,8.33,0,0,0,2.72-.33,3.75,3.75,0,0,0,1.68-1.4,11.12,11.12,0,0,0,1.46-3.45Z" transform="translate(-10.49 -39.69)"/><path class="cls-1" d="M32.51,49.86a9.49,9.49,0,0,1,3.07-7.39,11,11,0,0,1,7.68-2.78A11.31,11.31,0,0,1,51,42.44,9.54,9.54,0,0,1,54.13,50a9.88,9.88,0,0,1-3,7.47,10.89,10.89,0,0,1-7.85,2.86,10.88,10.88,0,0,1-7.76-2.86A9.93,9.93,0,0,1,32.51,49.86Zm3.35.1q0,4.78,1.91,7.19a6.91,6.91,0,0,0,5.74,2.4,6.47,6.47,0,0,0,5.3-2.4q1.95-2.4,1.95-7.16c0-3.09-.64-5.45-1.92-7.1a6.61,6.61,0,0,0-5.57-2.47,6.64,6.64,0,0,0-5.5,2.41C36.5,44.44,35.86,46.81,35.86,50Z" transform="translate(-10.49 -39.69)"/><path class="cls-1" d="M59.13,49.86a9.49,9.49,0,0,1,3.07-7.39,11.06,11.06,0,0,1,7.68-2.78,11.31,11.31,0,0,1,7.76,2.75A9.54,9.54,0,0,1,80.75,50a9.88,9.88,0,0,1-3,7.47,10.89,10.89,0,0,1-7.85,2.86,10.88,10.88,0,0,1-7.76-2.86A9.93,9.93,0,0,1,59.13,49.86Zm3.35.1q0,4.78,1.91,7.19a6.91,6.91,0,0,0,5.74,2.4,6.46,6.46,0,0,0,5.3-2.4q1.95-2.4,1.95-7.16c0-3.09-.64-5.45-1.92-7.1a6.61,6.61,0,0,0-5.56-2.47,6.64,6.64,0,0,0-5.51,2.41C63.12,44.44,62.48,46.81,62.48,50Z" transform="translate(-10.49 -39.69)"/><path class="cls-1" d="M99.08,56.49l7.24-16.43h6.09v.67h-.73a4.85,4.85,0,0,0-1.92.24,1.27,1.27,0,0,0-.61.9A19.21,19.21,0,0,0,109,45v9.74a27.11,27.11,0,0,0,.11,3.07,1.57,1.57,0,0,0,.6,1.07,3.2,3.2,0,0,0,1.82.36h.88v.67h-9.49v-.67h.7a3.34,3.34,0,0,0,1.75-.33,1.47,1.47,0,0,0,.63-1,21.55,21.55,0,0,0,.14-3.17V42.11L98.27,59.92h-.68L89.66,42.11V53.74A22.83,22.83,0,0,0,89.81,57a2.49,2.49,0,0,0,.91,1.51,3.51,3.51,0,0,0,2.13.75v.67h-7.1v-.67a3.66,3.66,0,0,0,2.07-.7,2.57,2.57,0,0,0,1-1.53A22.28,22.28,0,0,0,89,53.65V45A19,19,0,0,0,88.83,42a1.34,1.34,0,0,0-.58-1,4.7,4.7,0,0,0-2-.26h-.54v-.67h6Z" transform="translate(-10.49 -39.69)"/><path class="cls-1" d="M119.41,40.73v-.67h9.08v.67h-.42a4.85,4.85,0,0,0-1.92.24,1.27,1.27,0,0,0-.61.9,19.21,19.21,0,0,0-.15,3.14v9.74a24.82,24.82,0,0,0,.11,3.07,1.55,1.55,0,0,0,.58,1.07,3.26,3.26,0,0,0,1.83.36h.58v.67h-9.08v-.67H120a3.33,3.33,0,0,0,1.76-.33,1.42,1.42,0,0,0,.62-1,21.55,21.55,0,0,0,.14-3.17V45a20.36,20.36,0,0,0-.14-3.06,1.31,1.31,0,0,0-.58-1,4.73,4.73,0,0,0-2-.26Z" transform="translate(-10.49 -39.69)"/><path class="cls-1" d="M140.41,50.57v4.18a27.11,27.11,0,0,0,.11,3.07,1.5,1.5,0,0,0,.6,1.07,3.2,3.2,0,0,0,1.81.36h.66v.67h-9.1v-.67H135a3.4,3.4,0,0,0,1.77-.33,1.49,1.49,0,0,0,.62-1,22.13,22.13,0,0,0,.13-3.17V45a20.89,20.89,0,0,0-.13-3.06,1.32,1.32,0,0,0-.59-1,4.7,4.7,0,0,0-2-.26h-.37v-.67L137,40c2-.07,3.55-.1,4.66-.1a18,18,0,0,1,4.74.48,5.56,5.56,0,0,1,2.73,1.71,4.63,4.63,0,0,1,1.06,3.11,5.54,5.54,0,0,1-.73,2.87,4.61,4.61,0,0,1-2.08,1.89,12.26,12.26,0,0,1-4.77.64Zm0-.73h1.42a9.11,9.11,0,0,0,2.77-.34,3.3,3.3,0,0,0,1.76-1.45,4.9,4.9,0,0,0,.7-2.71,4.77,4.77,0,0,0-1.21-3.61,5.57,5.57,0,0,0-3.91-1.15,14.53,14.53,0,0,0-1.53.06Z" transform="translate(-10.49 -39.69)"/><path class="cls-1" d="M165.1,52.59h-7.54L157,53.85a12.81,12.81,0,0,0-1.14,3.58,1.57,1.57,0,0,0,.61,1.35,2.48,2.48,0,0,0,1.56.47v.67h-5.9v-.67a3.23,3.23,0,0,0,2-.93,11.45,11.45,0,0,0,1.55-3.06c0-.15.28-.71.7-1.7l5.78-13.78h.57l6.63,15.77.91,2.08a2.8,2.8,0,0,0,.83,1.11,3,3,0,0,0,1.56.51v.67h-7.81v-.67a5.76,5.76,0,0,0,1.94-.22.82.82,0,0,0,.51-.84,8.86,8.86,0,0,0-.68-1.92Zm-.25-.65-3.51-8.47-3.51,8.47Z" transform="translate(-10.49 -39.69)"/><path class="cls-1" d="M183.58,50.57v4.18a24.82,24.82,0,0,0,.11,3.07,1.52,1.52,0,0,0,.59,1.07,3.24,3.24,0,0,0,1.82.36h.66v.67h-9.1v-.67h.53a3.36,3.36,0,0,0,1.76-.33,1.42,1.42,0,0,0,.62-1,21.55,21.55,0,0,0,.14-3.17V45a20.36,20.36,0,0,0-.14-3.06,1.31,1.31,0,0,0-.58-1,4.73,4.73,0,0,0-2-.26h-.37v-.67l2.49-.09c2-.07,3.54-.1,4.66-.1a18,18,0,0,1,4.74.48,5.57,5.57,0,0,1,2.72,1.71,4.58,4.58,0,0,1,1.06,3.11,5.64,5.64,0,0,1-.72,2.87,4.71,4.71,0,0,1-2.08,1.89,12.29,12.29,0,0,1-4.77.64Zm0-.73H185a9.2,9.2,0,0,0,2.77-.34,3.25,3.25,0,0,0,1.75-1.45,4.9,4.9,0,0,0,.71-2.71A4.81,4.81,0,0,0,189,41.73a5.6,5.6,0,0,0-3.92-1.15,14.45,14.45,0,0,0-1.52.06Z" transform="translate(-10.49 -39.69)"/><path class="cls-1" d="M215.51,53.74h.7l-.43,6.18H199.33v-.67h.41a3.06,3.06,0,0,0,1.91-.4,1.72,1.72,0,0,0,.55-1,22.77,22.77,0,0,0,.12-3.1V45a22.91,22.91,0,0,0-.12-3,1.44,1.44,0,0,0-.57-1,3.91,3.91,0,0,0-1.89-.29v-.67h14.2l.47,4.95h-.69a7.73,7.73,0,0,0-1.15-2.95A2.9,2.9,0,0,0,211,41a14.29,14.29,0,0,0-3-.23h-2.75v8.33h2.11a6,6,0,0,0,2-.24,1.32,1.32,0,0,0,.76-.76,7,7,0,0,0,.18-2H211v6.8h-.69a5.66,5.66,0,0,0-.28-2.22,1.29,1.29,0,0,0-.81-.73,6.44,6.44,0,0,0-1.81-.17h-2.18v4.7c0,2.35.15,3.74.45,4.15s1.12.63,2.45.63h1.48a7,7,0,0,0,2.58-.41,4.65,4.65,0,0,0,1.92-1.65A9.92,9.92,0,0,0,215.51,53.74Z" transform="translate(-10.49 -39.69)"/><path class="cls-1" d="M239.51,58.52a5,5,0,0,1-1.28,1.37,3.09,3.09,0,0,1-1.71.42,2.68,2.68,0,0,1-1.89-.67,4.33,4.33,0,0,1-1.11-2.35l-.61-2.8a21.23,21.23,0,0,0-.63-2.24,2.78,2.78,0,0,0-.89-1.26,2.53,2.53,0,0,0-1.65-.48h-2.66V57a5.12,5.12,0,0,0,.17,1.54,1,1,0,0,0,.63.64,5.34,5.34,0,0,0,1.47.23v.56c-.86-.06-2-.09-3.56-.09s-2.8,0-3.58.09v-.56a5.34,5.34,0,0,0,1.47-.23,1,1,0,0,0,.63-.64,5.12,5.12,0,0,0,.17-1.54V43.06a5.12,5.12,0,0,0-.17-1.54,1,1,0,0,0-.63-.64,5.76,5.76,0,0,0-1.47-.23v-.56q1.17.09,3.42.09l3,0c.35,0,.76,0,1.2,0a8,8,0,0,1,5,1.36A4.25,4.25,0,0,1,236.6,45a5.05,5.05,0,0,1-.52,2.19,5.18,5.18,0,0,1-1.73,2,7.17,7.17,0,0,1-3.18,1.19l.34.06a5,5,0,0,1,2.68,1.12,5,5,0,0,1,1.23,2.57l.71,2.86a6.37,6.37,0,0,0,.58,1.79,1,1,0,0,0,.84.51,1.24,1.24,0,0,0,.8-.26,4.37,4.37,0,0,0,.74-.81ZM227.85,40.85a1.09,1.09,0,0,0-.6.7,5.16,5.16,0,0,0-.17,1.51V50H229c1.85,0,3.11-.41,3.81-1.23a5.15,5.15,0,0,0,1-3.42,4.91,4.91,0,0,0-1.09-3.47,4.68,4.68,0,0,0-3.56-1.18A3.3,3.3,0,0,0,227.85,40.85Z" transform="translate(-10.49 -39.69)"/></svg>